<svg width="24" height="23" viewBox="0 0 24 23" fill="none" xmlns="http://www.w3.org/2000/svg">
<path d="M0.304199 1.1582H1.58487C2.20545 1.1582 2.75405 1.56143 2.93929 2.15371L3.74995 4.74564M3.74995 4.74564L7.16846 15.6756C7.3537 16.2679 7.9023 16.6711 8.52287 16.6711H19.2008C19.8287 16.6711 20.3819 16.2586 20.561 15.6568L23.1456 6.97234C23.4127 6.07509 22.7531 5.16966 21.8171 5.14877L3.74995 4.74564Z" stroke="#37353A" stroke-width="0.755843"/>
<path d="M9.48109 22.0721C10.2927 22.0721 10.949 21.4128 10.949 20.6015C10.949 19.7902 10.2927 19.1309 9.48109 19.1309C8.6695 19.1309 8.01319 19.7902 8.01319 20.6015C8.01319 21.4128 8.6695 22.0721 9.48109 22.0721Z" stroke="#37353A" stroke-width="0.755843"/>
<path d="M18.757 22.0721C19.5686 22.0721 20.2249 21.4128 20.2249 20.6015C20.2249 19.7902 19.5686 19.1309 18.757 19.1309C17.9454 19.1309 17.2891 19.7902 17.2891 20.6015C17.2891 21.4128 17.9454 22.0721 18.757 22.0721Z" stroke="#37353A" stroke-width="0.755843"/>
</svg>
