<svg width="24" height="22" viewBox="0 0 24 22" fill="none" xmlns="http://www.w3.org/2000/svg">
<path d="M7.41846 15.1746C7.6037 15.7669 8.1523 16.1701 8.77287 16.1701H19.4508C20.0787 16.1701 20.6319 15.7576 20.811 15.1558L23.3956 6.47137C23.6627 5.57412 23.0031 4.66868 22.0671 4.6478L3.99995 4.24466L7.41846 15.1746Z" fill="#4DC2F8"/>
<path d="M0.554199 0.657227H1.83487C2.45545 0.657227 3.00405 1.06045 3.18929 1.65273L3.99995 4.24466M3.99995 4.24466L7.41846 15.1746C7.6037 15.7669 8.1523 16.1701 8.77287 16.1701H19.4508C20.0787 16.1701 20.6319 15.7576 20.811 15.1558L23.3956 6.47137C23.6627 5.57412 23.0031 4.66868 22.0671 4.6478L3.99995 4.24466Z" stroke="#4DC2F8" stroke-width="0.7"/>
<path d="M9.73084 21.5712C10.5424 21.5712 11.1987 20.9118 11.1987 20.1005C11.1987 19.2892 10.5424 18.6299 9.73084 18.6299C8.91925 18.6299 8.26295 19.2892 8.26295 20.1005C8.26295 20.9118 8.91925 21.5712 9.73084 21.5712Z" fill="#4DC2F8" stroke="#4DC2F8" stroke-width="0.755843"/>
<path d="M19.0065 21.5712C19.8181 21.5712 20.4744 20.9118 20.4744 20.1005C20.4744 19.2892 19.8181 18.6299 19.0065 18.6299C18.1949 18.6299 17.5386 19.2892 17.5386 20.1005C17.5386 20.9118 18.1949 21.5712 19.0065 21.5712Z" fill="#4DC2F8" stroke="#4DC2F8" stroke-width="0.755843"/>
</svg>
