<svg xmlns="http://www.w3.org/2000/svg" xmlns:xlink="http://www.w3.org/1999/xlink" version="1.1" width="13.600098pt" height="13.600586pt" viewBox="0 0 13.600098 13.600586">
<path transform="matrix(1,0,0,-1,0,13.6640629)" d="M2.4 10.464062C2.4 11.312756 2.737142 12.126688 3.337258 12.726804 3.937375 13.326921 4.751307 13.664062 5.6 13.664062 6.448693 13.664062 7.262626 13.326921 7.862742 12.726804 8.462859 12.126688 8.8 11.312756 8.8 10.464062 8.8 9.61537 8.462859 8.801437 7.862742 8.201321 7.262626 7.601204 6.448693 7.264062 5.6 7.264062 4.751307 7.264062 3.937375 7.601204 3.337258 8.201321 2.737142 8.801437 2.4 9.61537 2.4 10.464062ZM5.6 12.864062C4.963481 12.864062 4.353032 12.611206 3.902944 12.161119 3.452857 11.711031 3.2 11.100582 3.2 10.464062 3.2 9.827543 3.452857 9.217093 3.902944 8.767006 4.353032 8.316917 4.963481 8.064062 5.6 8.064062 6.23652 8.064062 6.84697 8.316917 7.297057 8.767006 7.747144 9.217093 8 9.827543 8 10.464062 8 11.100582 7.747144 11.711031 7.297057 12.161119 6.84697 12.611206 6.23652 12.864062 5.6 12.864062ZM0 4.864061C0 5.754462 .7224 6.464062 1.6072 6.464062H9.600001C9.824043 6.464238 10.045626 6.41736 10.250401 6.326462 10.161097 5.973029 10.189176 5.600137 10.3304 5.264062H10.292801C10.222588 5.385674 10.1216 5.486663 9.99999 5.556877 9.878378 5.627092 9.740427 5.664059 9.600001 5.664062H1.6072C1.1584 5.664062 .8 5.306461 .8 4.864061 .8 3.816862 1.2976 3.036861 2.1384 2.501661 2.9944 1.955261 4.212 1.664062 5.6 1.664062 6.3696 1.664062 7.0864 1.753661 7.7184 1.926461 7.611186 1.656649 7.575901 1.363612 7.616001 1.076061 6.984801 .933661 6.304 .864061 5.6 .864061 4.116 .864061 2.7336 1.172861 1.708 1.826462 .6664 2.490461 0 3.512062 0 4.864061ZM11.068001 6.252062 11.387199 7.004862C11.536799 7.358462 11.8952 7.550462 12.2472 7.476862L12.322401 7.457662 12.722401 7.329662C13.119201 7.202462 13.4224 6.863262 13.520801 6.436862 13.753601 5.423262 13.474401 4.188863 12.681601 2.734463 11.8904 1.281662 11.024 .408861 10.0808 .114461 9.7144 .000061 9.320801 .082461 9.0248 .331262L8.947201 .403261 8.6432 .708062C8.515486 .839541 8.432985 1.008292 8.407667 1.189832 8.38235 1.371371 8.415532 1.556256 8.5024 1.717661L8.5472 1.791262 9.0048 2.463262C9.088 2.590118 9.207335 2.689108 9.347382 2.747437 9.487428 2.805765 9.641748 2.820753 9.790401 2.790462L9.8704 2.768861 10.716001 2.486462C11.052801 2.742461 11.3344 3.062462 11.5592 3.450461 11.752001 3.782461 11.879202 4.118462 11.937602 4.459262L11.9616 4.630462 11.2584 5.298462C11.144905 5.409069 11.064212 5.54891 11.025245 5.702522 10.986277 5.856133 10.990553 6.017529 11.037601 6.168862L11.0672 6.252062H11.068001Z" fill="#1a112d" fill-opacity=".7"/>
</svg>
