<svg height="19.354493pt" viewBox="0 0 24 19.354493" width="24pt" xmlns="http://www.w3.org/2000/svg"><path d="m0 1.499804c-.276142 0-.5-.223857-.5-.5 0-.276142.223858-.5.5-.5zm7.168458-1c.276142 0 .5.223858.5.5 0 .276143-.223858.5-.5.5zm-7.168458 3.867384c-.276142 0-.5-.223858-.5-.5 0-.276143.223858-.5.5-.5zm4.301075-1c.276142 0 .5.223857.5.5 0 .276142-.223858.5-.5.5zm-4.301075-2.867384h7.168458v1h-7.168458zm0 2.867384h4.301075v1h-4.301075z" fill="#1a112d" fill-opacity=".7" transform="matrix(1 0 0 -1 5.017578 11.751953)"/><path d="m1.433692 13.84082v.5zm10.035841 0v.5zm-7.913261-10.035843v.5h-.000062zm-1.118996-.537634-.390313.3125-.000135-.000169zm-1.670968-2.088889-.390448.312332-.000385-.000484zm-.266308.268099v10.960575h-1v-10.960575zm0 10.960575c0 .247631.098371.485119.273472.66022l-.707107.707107c-.362637-.362637-.566365-.85448-.566365-1.367327zm.273472.66022c.175101.175102.412589.273472.66022.273472v1c-.512847 0-1.004689-.203727-1.367327-.566365zm.66022.273472h10.035841v1h-10.035841zm10.035841 0c.24763 0 .485118-.09837.660219-.273472l.707107.707107c-.362638.362638-.854479.566365-1.367326.566365zm.660219-.273472c.175101-.175101.273473-.41259.273473-.66022h1c0 .512847-.203729 1.00469-.566366 1.367327zm.273473-.66022v-7.168459h1v7.168459zm0-7.168459c0-.24763-.098372-.485118-.273473-.66022l.707107-.707106c.362637.362637.566366.854478.566366 1.367326zm-.273473-.66022c-.175101-.175101-.412589-.273472-.660219-.273472v-1c.512847 0 1.004689.203728 1.367326.566366zm-.660219-.273472h-7.913261v-1h7.913261zm-7.913323 0c-.289829-.000036-.575942-.065222-.837181-.190738l.433069-.901361c.126142.060606.264292.092082.404236.092099zm-.837181-.190738c-.261239-.125515-.490923-.308149-.672066-.534396l.780625-.625c.087465.109244.198369.197429.32451.258035zm-.672201-.534565-1.670967-2.088888.780894-.624663 1.670968 2.088888zm-1.671353-2.089372c.009035.011325.021368.019562.035291.023571l.276732-.960947c.185277.053356.349392.162972.469643.31368zm.035291.023571c.013924.00401.028749.003594.042422-.001191l-.330232-.943899c.181987-.06367.379265-.069212.564542-.015857zm.042422-.001191c.013676-.004784.025526-.013701.033913-.025515l-.815442-.578839c.111604-.157222.269308-.275875.451297-.339545zm.033913-.025515c.008385-.011813.012894-.025942.012899-.040432l-1-.000363c.00007-.192806.060057-.380823.171659-.538044z" fill="#1a112d" fill-opacity=".7" transform="matrix(1 0 0 -1 2.150391 18.141602)"/><path d="m10.838709 5.419513c0-2.993027-2.426328-5.419355-5.419355-5.419355-2.993026 0-5.419354 2.426328-5.419354 5.419355 0 2.993026 2.426328 5.419354 5.419354 5.419354 2.993027 0 5.419355-2.426328 5.419355-5.419354z" fill="#fff" transform="matrix(1 0 0 -1 11.612793 12.386719)"/><path d="m13.935484 13.935547h-13.935484v-13.935484h13.935484z" fill="#fff" fill-opacity=".01" transform="matrix(1 0 0 -1 10.064453 13.935547)"/><g fill="#353535"><path d="m9.912223 10.912612.353556.353552-.000003.000003zm-8.211554 0-.353551.353557-.000005-.000006zm0-8.211554-.353554-.353552.000002-.000003zm4.105783-2.20068c1.741329 0 3.318627.706429 4.459325 1.847127l-.707107.707106c-.960832-.96083-2.28676-1.554233-3.752218-1.554233zm4.459325 1.847127c1.140697 1.140697 1.847127 2.717996 1.847127 4.459324h-1c0-1.465458-.593403-2.791386-1.554234-3.752218zm1.847127 4.459324c0 1.74133-.70643 3.318627-1.847125 4.459335l-.707111-.707103c.960834-.960844 1.554236-2.286774 1.554236-3.752232zm-1.847128 4.459338c-1.140699 1.140691-2.717997 1.847114-4.459324 1.847114v-1c1.46546 0 2.791387-.593397 3.752219-1.554223zm-4.459324 1.847114c-1.741328 0-3.318625-.706423-4.459334-1.847112l.707101-.707113c.960844.960828 2.286773 1.554225 3.752233 1.554225zm-4.459339-1.847118c-1.14069-1.140709-1.847113-2.718006-1.847113-4.459334h1c0 1.46546.593397 2.791389 1.554225 3.752233zm-1.847113-4.459334c0-1.741327.706423-3.318625 1.847115-4.459323l.707108.707104c-.960825.960832-1.554223 2.28676-1.554223 3.752219zm1.847117-4.459326c1.140708-1.140696 2.718006-1.847125 4.459335-1.847125v1c-1.465458 0-2.791387.593402-3.752232 1.554235z" transform="matrix(1 0 0 -1 11.225586 13.774414)"/><path d="m1.241935 1.000347c0-.276143.223858-.5.5-.5.276143 0 .5.223857.5.5zm.5 1.16129v.5c-.276142 0-.5-.223858-.5-.5zm-2.241935 1.741935c0-.276142.223858-.5.5-.5s.5.223858.5.5zm2.741935-2.903225v1.16129h-1v-1.16129zm-.5.66129c1.238185 0 2.241936 1.003751 2.241936 2.241935h-1c0-.685899-.556036-1.241935-1.241936-1.241935zm2.241936 2.241935c0 1.238184-1.003751 2.241936-2.241936 2.241936v-1c.6859 0 1.241936-.556036 1.241936-1.241936zm-2.241936 2.241936c-1.238184 0-2.241935-1.003752-2.241935-2.241936h1c0 .6859.556036 1.241936 1.241935 1.241936z" transform="matrix(1 0 0 -1 15.290039 9.310547)"/><path d="m.725806-.000441c.400849 0 .725807.324958.725807.725806 0 .400849-.324958.725807-.725807.725807-.400848 0-.725806-.324958-.725806-.725807 0-.400848.324958-.725806.725806-.725806z" fill-rule="evenodd" transform="matrix(1 0 0 -1 16.306153 10.922852)"/></g></svg>