<svg width="23" height="18" viewBox="0 0 23 18" fill="none" xmlns="http://www.w3.org/2000/svg">
<path d="M1.48047 16.197V5.23643C1.48047 4.85619 1.63152 4.49152 1.90039 4.22265C2.16926 3.95378 2.53392 3.80273 2.91416 3.80273H12.95C13.3302 3.80273 13.6949 3.95378 13.9638 4.22265C14.2326 4.49152 14.3837 4.85619 14.3837 5.23643V12.4049C14.3837 12.7851 14.2326 13.1498 13.9638 13.4187C13.6949 13.6875 13.3302 13.8386 12.95 13.8386H5.03674C4.82185 13.8386 4.60972 13.8869 4.41603 13.98C4.22234 14.0731 4.05205 14.2085 3.91774 14.3762L2.24678 16.4651C2.19117 16.5348 2.11528 16.5855 2.0296 16.6102C1.94392 16.6348 1.8527 16.6323 1.76854 16.6028C1.68438 16.5734 1.61146 16.5185 1.55985 16.4458C1.50824 16.3731 1.4805 16.2862 1.48047 16.197V16.197Z" stroke="#37353A"/>
<path d="M20.4679 10.5753C19.4171 11.6261 17.9655 12.276 16.3621 12.276C14.7587 12.276 13.3071 11.6261 12.2563 10.5753C11.2056 9.52454 10.5557 8.07293 10.5557 6.46954C10.5557 4.86614 11.2056 3.41453 12.2563 2.36375C13.3071 1.313 14.7587 0.663086 16.3621 0.663086C17.9655 0.663086 19.4171 1.313 20.4679 2.36375C21.5187 3.41453 22.1686 4.86614 22.1686 6.46954C22.1686 8.07293 21.5187 9.52454 20.4679 10.5753Z" fill="#37353A" stroke="#37353A" stroke-linejoin="round"/>
<path d="M16.3621 7.81215V6.65086C17.3241 6.65086 18.104 5.87097 18.104 4.90893C18.104 3.94689 17.3241 3.16699 16.3621 3.16699C15.4 3.16699 14.6201 3.94689 14.6201 4.90893" stroke="white" stroke-linecap="round" stroke-linejoin="round"/>
</svg>
