<svg width="21" height="21" viewBox="0 0 21 21" fill="none" xmlns="http://www.w3.org/2000/svg">
<path d="M19.3842 6.68189L12.8342 1.44189C11.5542 0.421893 9.55416 0.411893 8.28416 1.43189L1.73416 6.68189C0.794162 7.43189 0.224162 8.93189 0.424162 10.1119L1.68416 17.6519C1.97416 19.3419 3.54416 20.6719 5.25416 20.6719H15.8542C17.5442 20.6719 19.1442 19.3119 19.4342 17.6419L20.6942 10.1019C20.8742 8.93189 20.3042 7.43189 19.3842 6.68189ZM11.3042 16.6719C11.3042 17.0819 10.9642 17.4219 10.5542 17.4219C10.1442 17.4219 9.80416 17.0819 9.80416 16.6719V13.6719C9.80416 13.2619 10.1442 12.9219 10.5542 12.9219C10.9642 12.9219 11.3042 13.2619 11.3042 13.6719V16.6719Z" fill="#4DC2F8"/>
</svg>
