<svg width="17" height="17" viewBox="0 0 17 17" fill="none" xmlns="http://www.w3.org/2000/svg">
<path d="M16.1777 0.679688H0.177734V16.6797H16.1777V0.679688Z" fill="white" fill-opacity="0.01"/>
<path d="M8.17771 15.346C10.0186 15.346 11.6853 14.5998 12.8917 13.3934C14.0982 12.187 14.8444 10.5203 14.8444 8.67936C14.8444 6.83843 14.0982 5.17176 12.8917 3.96532C11.6853 2.75889 10.0186 2.0127 8.17771 2.0127C6.33678 2.0127 4.67011 2.75889 3.46367 3.96532C2.25724 5.17176 1.51105 6.83843 1.51105 8.67936C1.51105 10.5203 2.25724 12.187 3.46367 13.3934C4.67011 14.5998 6.33678 15.346 8.17771 15.346Z" stroke="#1A112D" stroke-linejoin="round"/>
<path d="M8.17773 10.221V8.8877C9.2823 8.8877 10.1777 7.99226 10.1777 6.8877C10.1777 5.78313 9.2823 4.8877 8.17773 4.8877C7.07317 4.8877 6.17773 5.78313 6.17773 6.8877" stroke="#1A112D" stroke-linecap="round" stroke-linejoin="round"/>
<path fill-rule="evenodd" clip-rule="evenodd" d="M8.17775 13.2214C8.63799 13.2214 9.01109 12.8483 9.01109 12.388C9.01109 11.9278 8.63799 11.5547 8.17775 11.5547C7.71752 11.5547 7.34442 11.9278 7.34442 12.388C7.34442 12.8483 7.71752 13.2214 8.17775 13.2214Z" fill="#1A112D"/>
</svg>
