<svg height="19pt" viewBox="0 0 19 19" width="19pt" xmlns="http://www.w3.org/2000/svg"><path d="m19 19h-19v-19h19z" fill="#fff" fill-opacity=".01" transform="matrix(1 0 0 -1 0 19)"/><g fill="#1a112d" fill-opacity=".7"><path d="m4.008347 14.49158c.239803.136929.323199.442329.186271.682132-.136928.239802-.442329.323198-.682132.18627zm-1.000014-.056834.297782-.401654.000022.000016zm-1.128125-1.029044-.372712.333295-.000012-.000014zm11.281251 0 .372726.333279-.000014.000016zm-1.128125 1.029044-.297803-.401638.000022-.000016zm-.504153.925236c-.239803.136928-.545204.053532-.682131-.18627-.136929-.239803-.053533-.545203.186269-.682132zm-8.016695 0c-.278312-.158917-.546079-.333872-.801956-.523598l.595607-.803276c.224031.166113.458497.319311.70221.458472zm-.801934-.523582c-.437907-.324658-.841073-.692611-1.203056-1.097403l.745425-.66659c.316792.354257.669747.676401 1.053194.960685zm-1.203068-1.097417c-1.248446-1.396199-2.007484-3.232578-2.007484-5.243713h1c0 1.754349.66103 3.356021 1.752933 4.577151zm-2.007484-5.243713c0-4.382215 3.597204-7.923656 8.020833-7.923656v1c-3.883645 0-7.020833 3.105947-7.020833 6.923656zm8.020833-7.923656c4.42363 0 8.020834 3.541441 8.020834 7.923656h-1c0-3.817709-3.137188-6.923656-7.020834-6.923656zm8.020834 7.923656c0 2.011138-.759051 3.847514-2.007482 5.243711l-.745452-.666558c1.091894-1.221132 1.752934-2.822806 1.752934-4.577153zm-2.007496 5.243727c-.361982.404792-.765148.772745-1.203055 1.097403l-.595563-.803308c.383447-.284283.736401-.606428 1.053194-.960685zm-1.203033 1.097387c-.255878.189726-.523646.364681-.801957.523598l-.495862-.868402c.243714-.139161.478181-.292359.702212-.458472z" transform="matrix(1 0 0 -1 1.979004 18.092774)"/><path d="m.5 8.916992c0 .276142-.223858.5-.5.5s-.5-.223858-.5-.5zm-1-7.916666c0-.276143.223858-.5.5-.5s.5.223857.5.5zm0 7.916666v-7.916666h1v7.916666z" transform="matrix(1 0 0 -1 9.5 10.5)"/></g></svg>