<svg width="18" height="20" viewBox="0 0 18 20" fill="none" xmlns="http://www.w3.org/2000/svg">
<path fill-rule="evenodd" clip-rule="evenodd" d="M9 0C6.23858 0 4 2.23858 4 5C4 7.76142 6.23858 10 9 10C11.7614 10 14 7.76142 14 5C14 2.23858 11.7614 0 9 0ZM6 5C6 3.34315 7.34315 2 9 2C10.6569 2 12 3.34315 12 5C12 6.65685 10.6569 8 9 8C7.34315 8 6 6.65685 6 5Z" fill="#03A9F4" fill-opacity="0.3"/>
<path fill-rule="evenodd" clip-rule="evenodd" d="M9 11.5C4.5502 11.5 2.07689 13.0054 0.93312 14.0093C0.227228 14.6288 0 15.4996 0 16.2447C0 18.3187 1.68132 20 3.75534 20H14.2447C16.3187 20 18 18.3187 18 16.2447C18 15.4996 17.7728 14.6288 17.0669 14.0093C15.9231 13.0054 13.4498 11.5 9 11.5ZM2.25244 15.5124C3.03934 14.8217 5.04626 13.5 9 13.5C12.9537 13.5 14.9607 14.8217 15.7476 15.5124C15.8856 15.6335 16 15.8668 16 16.2447C16 17.2141 15.2141 18 14.2447 18H3.75534C2.78589 18 2 17.2141 2 16.2447C2 15.8668 2.11441 15.6335 2.25244 15.5124Z" fill="#03A9F4" fill-opacity="0.3"/>
</svg>
