<svg height="13.333008pt" viewBox="0 0 12 13.333008" width="12pt" xmlns="http://www.w3.org/2000/svg"><g fill="#37353a" fill-rule="evenodd"><path d="m6 6.666992c-1.840949 0-3.333333-1.492384-3.333333-3.333333s1.492384-3.333333 3.333333-3.333333 3.333334 1.492384 3.333334 3.333333-1.492385 3.333333-3.333334 3.333333zm-2-3.333333c0 1.10457.895431 2 2 2 1.10457 0 2-.89543 2-2 0-1.104569-.89543-2-2-2-1.104569 0-2 .895431-2 2z" transform="matrix(1 0 0 -1 0 6.666992)"/><path d="m6-2.00065c-2.966531 0-4.615405-1.003574-5.37792-1.672848-.470595-.413051-.62208-.993543-.62208-1.490258 0-1.382678 1.120881-2.50356 2.503559-2.50356h6.992882c1.382678 0 2.503559 1.120882 2.503559 2.50356 0 .496715-.151485 1.077208-.62208 1.490259-.762516.669273-2.411388 1.672847-5.37792 1.672847zm-4.498371-2.674932c.524597.460449 1.862547 1.341599 4.498371 1.341599s3.973774-.88115 4.498371-1.341599c.09202-.080768.168296-.236298.168296-.488174 0-.6463-.523929-1.170227-1.170226-1.170227h-6.992882c-.646297 0-1.170226.523927-1.170226 1.170227 0 .251876.076276.407406.168296.488174z" transform="matrix(1 0 0 -1 0 5.666016)"/></g></svg>