<svg width="15" height="15" viewBox="0 0 15 15" fill="none" xmlns="http://www.w3.org/2000/svg">
<path d="M10.4844 3.79311C11.8177 4.71978 12.7377 6.19311 12.9244 7.89311M1.50437 7.92645C1.58819 7.11123 1.84578 6.32345 2.25978 5.6162C2.67378 4.90894 3.23458 4.29865 3.90437 3.82645M4.63771 13.6398C5.41104 14.0331 6.29104 14.2531 7.21771 14.2531C8.11104 14.2531 8.95104 14.0531 9.70437 13.6864M7.21771 4.81311C7.70924 4.81311 8.18064 4.61785 8.52821 4.27028C8.87578 3.92272 9.07104 3.45131 9.07104 2.95978C9.07104 2.46824 8.87578 1.99684 8.52821 1.64927C8.18064 1.30171 7.70924 1.10645 7.21771 1.10645C6.72617 1.10645 6.25477 1.30171 5.9072 1.64927C5.55963 1.99684 5.36437 2.46824 5.36437 2.95978C5.36437 3.45131 5.55963 3.92272 5.9072 4.27028C6.25477 4.61785 6.72617 4.81311 7.21771 4.81311V4.81311ZM2.39771 12.9598C2.88924 12.9598 3.36064 12.7645 3.70821 12.417C4.05578 12.0694 4.25104 11.598 4.25104 11.1064C4.25104 10.6149 4.05578 10.1435 3.70821 9.79594C3.36064 9.44837 2.88924 9.25311 2.39771 9.25311C1.90617 9.25311 1.43477 9.44837 1.0872 9.79594C0.739634 10.1435 0.544373 10.6149 0.544373 11.1064C0.544373 11.598 0.739634 12.0694 1.0872 12.417C1.43477 12.7645 1.90617 12.9598 2.39771 12.9598V12.9598ZM11.9577 12.9598C12.4492 12.9598 12.9206 12.7645 13.2682 12.417C13.6158 12.0694 13.811 11.598 13.811 11.1064C13.811 10.6149 13.6158 10.1435 13.2682 9.79594C12.9206 9.44837 12.4492 9.25311 11.9577 9.25311C11.4662 9.25311 10.9948 9.44837 10.6472 9.79594C10.2996 10.1435 10.1044 10.6149 10.1044 11.1064C10.1044 11.598 10.2996 12.0694 10.6472 12.417C10.9948 12.7645 11.4662 12.9598 11.9577 12.9598V12.9598Z" stroke="#1A112D" stroke-width="0.8" stroke-linecap="round" stroke-linejoin="round"/>
</svg>
