<svg width="14" height="14" viewBox="0 0 14 14" fill="none" xmlns="http://www.w3.org/2000/svg">
<path d="M7.32969 0.779297C9.58329 0.779297 10.8617 2.3177 11.0473 4.1761H11.1033C12.5553 4.1761 13.7297 5.3857 13.7297 6.8777C13.7297 6.9537 13.7265 7.0297 13.7209 7.1041C13.463 6.78245 13.1633 6.49672 12.8297 6.2545C12.5817 5.5081 11.8993 4.9761 11.1041 4.9761H11.0473C10.849 4.9761 10.6577 4.90244 10.5106 4.7694C10.3635 4.63636 10.2711 4.45343 10.2513 4.2561C10.0897 2.6393 9.01689 1.5793 7.32969 1.5793C5.63849 1.5793 4.57049 2.6321 4.40809 4.2553C4.38844 4.45277 4.2961 4.6359 4.149 4.7691C4.0019 4.9023 3.81054 4.97608 3.61209 4.9761H3.55609C2.55129 4.9761 1.72969 5.8225 1.72969 6.8777C1.72969 7.9337 2.55209 8.7793 3.55529 8.7793H5.68809C5.61732 9.04125 5.56993 9.30897 5.54649 9.5793H3.55529C2.10489 9.5793 0.929688 8.3697 0.929688 6.8777C0.929688 5.4353 2.02809 4.2569 3.41129 4.1801L3.61209 4.1761C3.79929 2.3057 5.07609 0.779297 7.32969 0.779297ZM10.1297 6.3793C11.0845 6.3793 12.0001 6.75858 12.6753 7.43371C13.3504 8.10884 13.7297 9.02452 13.7297 9.9793C13.7297 10.9341 13.3504 11.8498 12.6753 12.5249C12.0001 13.2 11.0845 13.5793 10.1297 13.5793C9.17491 13.5793 8.25923 13.2 7.5841 12.5249C6.90897 11.8498 6.52969 10.9341 6.52969 9.9793C6.52969 9.02452 6.90897 8.10884 7.5841 7.43371C8.25923 6.75858 9.17491 6.3793 10.1297 6.3793ZM11.4113 10.2977C11.4957 10.3821 11.6103 10.4296 11.7297 10.4296C11.8491 10.4296 11.9636 10.3821 12.0481 10.2977C12.1325 10.2133 12.18 10.0987 12.18 9.9793C12.18 9.85987 12.1325 9.74534 12.0481 9.6609L10.4481 8.0609C10.4063 8.019 10.3567 7.98576 10.3021 7.96308C10.2474 7.9404 10.1888 7.92873 10.1297 7.92873C10.0705 7.92873 10.012 7.9404 9.95732 7.96308C9.90268 7.98576 9.85305 8.019 9.81129 8.0609L8.21129 9.6609C8.16948 9.70271 8.13631 9.75235 8.11368 9.80698C8.09105 9.86161 8.0794 9.92016 8.0794 9.9793C8.0794 10.0384 8.09105 10.097 8.11368 10.1516C8.13631 10.2062 8.16948 10.2559 8.21129 10.2977C8.2531 10.3395 8.30274 10.3727 8.35737 10.3953C8.412 10.4179 8.47056 10.4296 8.52969 10.4296C8.58882 10.4296 8.64737 10.4179 8.702 10.3953C8.75664 10.3727 8.80627 10.3395 8.84809 10.2977L9.72969 9.4161V11.5793C9.72969 11.6854 9.77183 11.7871 9.84684 11.8621C9.92186 11.9372 10.0236 11.9793 10.1297 11.9793C10.2358 11.9793 10.3375 11.9372 10.4125 11.8621C10.4875 11.7871 10.5297 11.6854 10.5297 11.5793V9.4161L11.4113 10.2977Z" fill="#1A112D"/>
</svg>
