<svg width="22" height="22" viewBox="0 0 22 22" fill="none" xmlns="http://www.w3.org/2000/svg">
<path d="M20.9258 6.94188V2.90188C20.9258 1.31187 20.2858 0.671875 18.6958 0.671875H14.6558C13.0658 0.671875 12.4258 1.31187 12.4258 2.90188V6.94188C12.4258 8.53188 13.0658 9.17188 14.6558 9.17188H18.6958C20.2858 9.17188 20.9258 8.53188 20.9258 6.94188ZM9.42578 7.19188V2.65188C9.42578 1.24188 8.78578 0.671875 7.19578 0.671875H3.15578C1.56578 0.671875 0.925781 1.24188 0.925781 2.65188V7.18188C0.925781 8.60188 1.56578 9.16187 3.15578 9.16187H7.19578C8.78578 9.17187 9.42578 8.60188 9.42578 7.19188ZM9.42578 18.4419V14.4019C9.42578 12.8119 8.78578 12.1719 7.19578 12.1719H3.15578C1.56578 12.1719 0.925781 12.8119 0.925781 14.4019V18.4419C0.925781 20.0319 1.56578 20.6719 3.15578 20.6719H7.19578C8.78578 20.6719 9.42578 20.0319 9.42578 18.4419Z" stroke="#37353A" stroke-width="0.7" stroke-linecap="round" stroke-linejoin="round"/>
<path d="M13.9258 14.1719H19.9258M13.9258 18.1719H19.9258" stroke="#37353A" stroke-width="0.7" stroke-linecap="round"/>
</svg>
