<svg width="21" height="21" viewBox="0 0 21 21" fill="none" xmlns="http://www.w3.org/2000/svg">
<path d="M19.9258 14.6758H13.9258C13.5158 14.6758 13.1758 14.3358 13.1758 13.9258C13.1758 13.5158 13.5158 13.1758 13.9258 13.1758H19.9258C20.3358 13.1758 20.6758 13.5158 20.6758 13.9258C20.6758 14.3358 20.3358 14.6758 19.9258 14.6758ZM19.9258 18.6758H13.9258C13.5158 18.6758 13.1758 18.3358 13.1758 17.9258C13.1758 17.5158 13.5158 17.1758 13.9258 17.1758H19.9258C20.3358 17.1758 20.6758 17.5158 20.6758 17.9258C20.6758 18.3358 20.3358 18.6758 19.9258 18.6758ZM20.9258 6.94578V2.40578C20.9258 0.995781 20.2858 0.425781 18.6958 0.425781H14.6558C13.0658 0.425781 12.4258 0.995781 12.4258 2.40578V6.93578C12.4258 8.35578 13.0658 8.91578 14.6558 8.91578H18.6958C20.2858 8.92578 20.9258 8.35578 20.9258 6.94578ZM9.42578 6.94578V2.40578C9.42578 0.995781 8.78578 0.425781 7.19578 0.425781H3.15578C1.56578 0.425781 0.925781 0.995781 0.925781 2.40578V6.93578C0.925781 8.35578 1.56578 8.91578 3.15578 8.91578H7.19578C8.78578 8.92578 9.42578 8.35578 9.42578 6.94578ZM9.42578 18.1958V14.1558C9.42578 12.5658 8.78578 11.9258 7.19578 11.9258H3.15578C1.56578 11.9258 0.925781 12.5658 0.925781 14.1558V18.1958C0.925781 19.7858 1.56578 20.4258 3.15578 20.4258H7.19578C8.78578 20.4258 9.42578 19.7858 9.42578 18.1958Z" fill="#4DC2F8"/>
</svg>
