<svg width="29" height="29" viewBox="0 0 29 29" fill="none" xmlns="http://www.w3.org/2000/svg">
<path d="M21.0861 6.77177C23.7527 8.6251 25.5927 11.5718 25.9661 14.9718M3.12605 15.0384C3.29369 13.408 3.80886 11.8324 4.63687 10.4179C5.46487 9.00343 6.58646 7.78285 7.92605 6.83844M9.39272 26.4651C10.9394 27.2518 12.6994 27.6918 14.5527 27.6918C16.3394 27.6918 18.0194 27.2918 19.5261 26.5584M14.5527 8.81177C15.5358 8.81177 16.4786 8.42125 17.1737 7.72611C17.8689 7.03098 18.2594 6.08817 18.2594 5.1051C18.2594 4.12204 17.8689 3.17923 17.1737 2.48409C16.4786 1.78896 15.5358 1.39844 14.5527 1.39844C13.5697 1.39844 12.6268 1.78896 11.9317 2.48409C11.2366 3.17923 10.8461 4.12204 10.8461 5.1051C10.8461 6.08817 11.2366 7.03098 11.9317 7.72611C12.6268 8.42125 13.5697 8.81177 14.5527 8.81177V8.81177ZM4.91272 25.1051C5.89579 25.1051 6.8386 24.7146 7.53373 24.0194C8.22887 23.3243 8.61939 22.3815 8.61939 21.3984C8.61939 20.4154 8.22887 19.4726 7.53373 18.7774C6.8386 18.0823 5.89579 17.6918 4.91272 17.6918C3.92965 17.6918 2.98685 18.0823 2.29171 18.7774C1.59658 19.4726 1.20605 20.4154 1.20605 21.3984C1.20605 22.3815 1.59658 23.3243 2.29171 24.0194C2.98685 24.7146 3.92965 25.1051 4.91272 25.1051V25.1051ZM24.0327 25.1051C25.0158 25.1051 25.9586 24.7146 26.6537 24.0194C27.3489 23.3243 27.7394 22.3815 27.7394 21.3984C27.7394 20.4154 27.3489 19.4726 26.6537 18.7774C25.9586 18.0823 25.0158 17.6918 24.0327 17.6918C23.0497 17.6918 22.1068 18.0823 21.4117 18.7774C20.7166 19.4726 20.3261 20.4154 20.3261 21.3984C20.3261 22.3815 20.7166 23.3243 21.4117 24.0194C22.1068 24.7146 23.0497 25.1051 24.0327 25.1051V25.1051Z" stroke="#37353A" stroke-width="1.2" stroke-linecap="round" stroke-linejoin="round"/>
</svg>
