<svg height="16pt" viewBox="0 0 16 16" width="16pt" xmlns="http://www.w3.org/2000/svg"><path d="m16 16h-16v-16h16z" fill="#fff" fill-opacity=".01" transform="matrix(1 0 0 -1 0 16)"/><g fill="#1a112d"><path d="m3.666667.499674c2.301176 0 4.166666 1.865491 4.166666 4.166667h-1c0-1.748891-1.417775-3.166667-3.166666-3.166667zm4.166666 4.166667c0 2.301176-1.86549 4.166667-4.166666 4.166667v-1c1.748891 0 3.166666-1.417776 3.166666-3.166667zm-4.166666 4.166667c-2.301176 0-4.166667-1.865491-4.166667-4.166667h1c0 1.748891 1.417776 3.166667 3.166667 3.166667zm-4.166667-4.166667c0-2.301176 1.865491-4.166667 4.166667-4.166667v1c-1.748891 0-3.166667 1.417776-3.166667 3.166667z" transform="matrix(1 0 0 -1 4.340332 12.78418)"/><path d="m1.174664 1.570312c.194702.19582.193796.512402-.002025.707104-.19582.194702-.512401.193796-.707103-.002025zm-1.529228-.119731c-.194703-.19582-.193796-.512401.002024-.707104.195821-.194702.512402-.193795.707104.002025zm.8201.82481-.8201-.82481.709128-.705079.8201.82481z" transform="matrix(1 0 0 -1 12.166504 4.925781)"/><path d="m1.036857 1.431636c.194705.195819.193802.5124-.002017.707104-.195818.194705-.512399.193801-.707104-.002017zm-1.391417.018887c-.194705-.195818-.193802-.512399.002016-.707104.195819-.194704.5124-.193801.707104.002017zm.682296.6862-.682296-.6862.70912-.705087.682297.6862z" transform="matrix(1 0 0 -1 3.006836 14.032227)"/><path d="m.5 2c0 .276142-.223858.5-.5.5s-.5-.223858-.5-.5zm-1-1c0-.276142.223858-.5.5-.5s.5.223858.5.5zm0 1v-1h1v1z" transform="matrix(1 0 0 -1 8 15.78418)"/><path d="m1.333333.5c.276142 0 .5.223858.5.5s-.223858.5-.5.5zm-1.333333 1c-.276142 0-.5-.223858-.5-.5s.223858-.5.5-.5zm1.333333 0h-1.333333v-1h1.333333z" transform="matrix(1 0 0 -1 13.333496 8.78418)"/><path d="m.353553 2.273475c-.195262.195263-.511845.195262-.707107 0s-.195261-.511845.000001-.707107zm.115362-1.529574c.195262-.195262.511844-.195261.707106.000001s.195262.511845 0 .707107zm-.822468.822467.822468-.822467.707106.707108-.822468.822466z" transform="matrix(1 0 0 -1 12.510742 14.032227)"/><path d="m2.333333 4.666992c-1.288666 0-2.333333-1.044667-2.333333-2.333333 0-1.288667 1.044667-2.333334 2.333333-2.333334" fill-rule="evenodd" transform="matrix(1 0 0 -1 5.67334 10.451172)"/><path d="m0 1.5c-.276142 0-.5-.223858-.5-.5s.223858-.5.5-.5zm1.333333-1c.276143 0 .5.223858.5.5s-.223857.5-.5.5zm-1.333333 0h1.333333v1h-1.333333z" transform="matrix(1 0 0 -1 1.333496 9.118164)"/><path d="m.35355 2.135783c-.195264.195261-.511847.195258-.707107-.000006-.19526-.195265-.195257-.511847.000007-.707107zm-.022833-1.391367c.195264-.19526.511846-.195257.707107.000007.19526.195264.195257.511847-.000007.707107zm-.684267.684254.684267-.684254.7071.707114-.684267.684253z" transform="matrix(1 0 0 -1 3.348145 4.785156)"/><path d="m.5 2.333008c0 .276142-.223858.5-.5.5s-.5-.223858-.5-.5zm-1-1.333334c0-.276142.223858-.5.5-.5s.5.223858.5.5zm0 1.333334v-1.333334h1v1.333334z" transform="matrix(1 0 0 -1 8 3.451172)"/></g></svg>